<svg xmlns="http://www.w3.org/2000/svg" viewBox="0 0 684.11 684.11"><defs><linearGradient id="linear-gradient" x1="256.35" y1="-140.37" x2="513.93" y2="-140.37" gradientTransform="rotate(146.54 328.06 231.916)" gradientUnits="userSpaceOnUse"><stop offset="0" stop-color="#161616"/><stop offset=".11" stop-color="#1a1a1a"/><stop offset=".21" stop-color="#252525"/><stop offset=".31" stop-color="#373737"/><stop offset=".4" stop-color="#515151"/><stop offset=".5" stop-color="#727272"/><stop offset=".52" stop-color="#7a7a7a"/><stop offset=".56" stop-color="#606060"/><stop offset=".63" stop-color="#454545"/><stop offset=".69" stop-color="#303030"/><stop offset=".77" stop-color="#212121"/><stop offset=".86" stop-color="#191919"/><stop offset="1" stop-color="#161616"/></linearGradient><linearGradient id="linear-gradient-2" x1="243.66" y1="66.16" x2="470.19" y2="85.98" gradientUnits="userSpaceOnUse"><stop offset="0" stop-color="#161616"/><stop offset=".12" stop-color="#191919"/><stop offset=".22" stop-color="#232323"/><stop offset=".31" stop-color="#343434"/><stop offset=".4" stop-color="#4c4c4c"/><stop offset=".48" stop-color="#6a6a6a"/><stop offset=".52" stop-color="#7a7a7a"/><stop offset=".56" stop-color="#606060"/><stop offset=".63" stop-color="#454545"/><stop offset=".69" stop-color="#303030"/><stop offset=".77" stop-color="#212121"/><stop offset=".86" stop-color="#191919"/><stop offset="1" stop-color="#161616"/></linearGradient><linearGradient id="linear-gradient-3" x1="314.21" y1="135.88" x2="389.23" y2="142.45" gradientUnits="userSpaceOnUse"><stop offset="0" stop-color="#040000"/><stop offset=".18" stop-color="#0c0909"/><stop offset=".47" stop-color="#222"/><stop offset=".52" stop-color="#262626"/><stop offset=".56" stop-color="#222121"/><stop offset=".83" stop-color="#0c0909"/><stop offset="1" stop-color="#040000"/></linearGradient><style>.cls-1{fill:#040000}.cls-2{fill:#161616}.cls-6{fill:#3f3f3f}.cls-7{fill:#282828}</style></defs><g id="图层_2" data-name="图层 2"><g id="图层_1-2" data-name="图层 1"><path class="cls-1" d="M684.11 342.06c0 188.91-153.14 342.05-342 342.05S0 531 0 342.06 153.14 0 342.06 0s342.05 153.14 342.05 342.06zm-342-77.42a77.42 77.42 0 1077.41 77.42 77.42 77.42 0 00-77.46-77.42z"/><path class="cls-2" d="M342.06 264.64a77.42 77.42 0 1077.41 77.42 77.42 77.42 0 00-77.41-77.42zm323.88 80.25c0 180.07-146 326-326 326s-326-146-326-326 146-326 326-326 326 145.94 326 326z"/><path d="M388.78 568.41l133-88.34 93.35 56.23s-44.28 54-90.95 82C450.37 662.52 394 668.75 394 668.75z" fill="url(#linear-gradient)"/><path d="M423.13 128.25l-144.19-1.67-32.28-94.75s47.64-13.39 102-13.39c41.85 0 124.9 28.42 124.9 28.42z" fill="url(#linear-gradient-2)"/><path d="M584.43 344.89h-.53a244 244 0 11-71.47-172.53 243.2 243.2 0 0171.47 172.53h1.1c0-135.34-109.72-245.06-245-245.06S94.85 209.55 94.85 344.89 204.56 590 339.91 590 585 480.23 585 344.89z" fill="#2d2d2d"/><path class="cls-2" d="M339.91 590.45a245.56 245.56 0 11245.55-246.06v1a245.55 245.55 0 01-245.55 245.06zm-54.1-7a245.57 245.57 0 00108.26 0 248 248 0 01-108.26 0zm54.1-482a243.5 243.5 0 10172.17 71.32 241.91 241.91 0 00-172.17-71.38zm244.49 244a246.9 246.9 0 01-6 53.62 244.24 244.24 0 006-53.62zm-483.14-54.14a245.72 245.72 0 000 107.09 248.18 248.18 0 010-107.09zm483.14 53.08h.06a244.51 244.51 0 00-6.05-53.65 246.57 246.57 0 015.99 53.65zm-244.49-244a247.09 247.09 0 0153.43 5.82 245.71 245.71 0 00-106.73 0 247.06 247.06 0 0153.3-5.82z"/><path class="cls-1" d="M588.31 344.89h-.53a247.87 247.87 0 11-72.6-175.28 247.1 247.1 0 0172.6 175.28h1.06C588.84 207.41 477.39 96 339.91 96S91 207.41 91 344.89s111.42 248.94 248.91 248.94 248.93-111.45 248.93-248.94z"/><path class="cls-2" d="M592.19 344.89h-.53a251.76 251.76 0 11-73.74-178 251 251 0 0173.74 178h1.06c0-139.63-113.19-252.82-252.81-252.82S87.09 205.26 87.09 344.89s113.19 252.82 252.82 252.82 252.81-113.19 252.81-252.82z"/><path class="cls-1" d="M339.91 597.83a253.1 253.1 0 11252.93-253.06v.23a252.7 252.7 0 01-252.93 252.83zm0-505.63c-139.34 0-252.7 113.36-252.7 252.69s113.36 252.69 252.7 252.69S592.53 484.29 592.59 345h-.8a252.65 252.65 0 110-.25h.8C592.53 205.49 479.2 92.2 339.91 92.2zm0 1A251.64 251.64 0 10517.84 167a250 250 0 00-177.93-73.75z"/><path class="cls-2" d="M596.07 344.89h-.53a255.62 255.62 0 11-74.87-180.77 254.86 254.86 0 0174.87 180.77h1.06c0-141.77-114.93-256.7-256.69-256.7S83.2 203.12 83.2 344.89s114.93 256.7 256.71 256.7S596.6 486.66 596.6 344.89z"/><path class="cls-1" d="M339.91 601.72a257 257 0 11256.82-257v.28a256.64 256.64 0 01-256.82 256.7zm0-513.41c-141.48 0-256.58 115.11-256.58 256.58s115.1 256.58 256.58 256.58 256.5-115 256.57-256.45h-.81a256.65 256.65 0 110-.25h.81c-.07-141.42-115.14-256.46-256.57-256.46zm0 1.06a255.52 255.52 0 10180.67 74.84 253.85 253.85 0 00-180.67-74.84z"/><path class="cls-1" d="M600 344.89h-.53a259.51 259.51 0 11-76-183.51 258.67 258.67 0 0176 183.51h1.06C600.48 201 483.82 84.31 339.91 84.31S79.32 201 79.32 344.89 196 605.47 339.91 605.47s260.57-116.66 260.57-260.58z"/><path class="cls-2" d="M603.83 344.89h-.53a263.39 263.39 0 11-77.14-186.25 262.61 262.61 0 0177.14 186.25h1.06c0-146.06-118.4-264.46-264.45-264.46S75.44 198.83 75.44 344.89s118.41 264.46 264.47 264.46S604.36 491 604.36 344.89z"/><path class="cls-6" d="M339.91 609.48a264.74 264.74 0 11264.58-264.71v.23a264.39 264.39 0 01-264.58 264.48zm0-528.93c-145.76 0-264.34 118.59-264.34 264.34s118.58 264.34 264.34 264.34S604.17 490.71 604.24 345h-.81a264.43 264.43 0 110-.25h.81c-.07-145.68-118.62-264.2-264.33-264.2zm0 1.06a263.27 263.27 0 10186.16 77.11 261.59 261.59 0 00-186.16-77.11z"/><path class="cls-2" d="M607.72 344.89h-.53a267.3 267.3 0 11-78.29-189 266.45 266.45 0 0178.29 189h1c0-148.2-120.13-268.34-268.33-268.34S71.56 196.69 71.56 344.89 191.7 613.23 339.91 613.23s268.33-120.14 268.33-268.34z"/><path class="cls-1" d="M339.91 613.36a268.54 268.54 0 01-104.5-515.84 268.39 268.39 0 01373 247.25v.23a268.25 268.25 0 01-268.5 268.36zm0-536.69C192 76.67 71.69 197 71.69 344.89S192 613.11 339.91 613.11 608.05 492.85 608.12 345h-.81a267.48 267.48 0 01-513.8 104 267.48 267.48 0 11513.8-104.21h.81c-.07-147.86-120.37-268.12-268.21-268.12zm0 1.06a267.16 267.16 0 100 534.32A267.16 267.16 0 00528.81 156a265.41 265.41 0 00-188.9-78.27z"/><path class="cls-1" d="M611.6 344.89h-.53a271.17 271.17 0 11-79.42-191.74 270.35 270.35 0 0179.42 191.74h1.06c0-150.35-121.88-272.23-272.22-272.23S67.68 194.54 67.68 344.89s121.88 272.23 272.23 272.23 272.21-121.88 272.22-272.23z"/><path class="cls-2" d="M615.48 344.89H615a275 275 0 11-80.61-194.49A274.21 274.21 0 01615 344.89h1C616 192.4 492.39 68.78 339.91 68.78S63.8 192.4 63.8 344.89 187.42 621 339.91 621 616 497.38 616 344.89z"/><path class="cls-1" d="M339.91 621.12A276.3 276.3 0 01232.38 90.37a276.13 276.13 0 01383.75 254.4v.23a276 276 0 01-276.22 276.1zm0-552.21c-152.18 0-276 123.8-276 276s123.81 276 276 276S615.82 497.14 615.88 345h-.81A275.24 275.24 0 0186.36 452a275.24 275.24 0 01507.09-214.22 273.39 273.39 0 0121.62 107h.81C615.82 192.64 492 68.91 339.91 68.91zm0 1.06A274.92 274.92 0 00145.5 539.29a274.92 274.92 0 00388.8-388.8A273.08 273.08 0 00339.91 70z"/><path class="cls-2" d="M619.36 344.89h-.53a278.94 278.94 0 11-81.7-197.23 278 278 0 0181.7 197.23h1.06c0-154.63-125.35-280-280-280s-280 125.36-280 280 125.35 280 280 280 280-125.36 280-280z"/><path class="cls-1" d="M339.91 625a280.18 280.18 0 01-109-538.21A280 280 0 01620 344.77v.23a279.86 279.86 0 01-280.1 280zm0-560C185.59 65 60 190.57 60 344.89s125.59 279.86 279.91 279.86S619.7 499.28 619.76 345H619a280 280 0 110-.25h.8C619.7 190.5 494.18 65 339.91 65zm0 1a278.81 278.81 0 00-197.15 476 278.8 278.8 0 10394.29-394.25 277 277 0 00-197.14-81.67z"/><path class="cls-1" d="M623.24 344.89h-.53a282.8 282.8 0 11-82.83-200 281.92 281.92 0 0182.83 200h1.06C623.77 188.11 496.68 61 339.91 61S56 188.11 56 344.89s127.1 283.87 283.88 283.87 283.89-127.09 283.89-283.87z"/><path class="cls-1" d="M339.91 629a284.19 284.19 0 01-110.6-545.9A284 284 0 01624 344.64v.5A283.88 283.88 0 01339.91 629zm0-567.74C183.52 61.27 56.28 188.5 56.28 344.89s127.24 283.62 283.63 283.62 283.47-127.1 283.61-283.37H623A283.13 283.13 0 0179.09 455.07a283.13 283.13 0 01521.63-220.36A281.38 281.38 0 01623 344.64h.56c-.18-156.27-127.35-283.37-283.65-283.37zm0 1.06A282.56 282.56 0 00140.1 544.69a282.56 282.56 0 10399.6-399.6 280.69 280.69 0 00-199.79-82.76z"/><path class="cls-6" d="M627.12 344.89h-.53a286.69 286.69 0 11-84-202.72 285.75 285.75 0 0184 202.72h1.06c0-158.89-128.83-287.75-287.74-287.75S52.15 186 52.15 344.89 181 632.64 339.91 632.64s287.74-128.83 287.74-287.75z"/><path class="cls-1" d="M339.91 633.14a288.25 288.25 0 01-203.83-492.07 288.25 288.25 0 01492.07 203.32v1a288.23 288.23 0 01-288.24 287.75zm-57-6.67a288.94 288.94 0 00114 0 292 292 0 01-114 0zm57-567.77a286.19 286.19 0 00-202.37 488.56 286.19 286.19 0 00404.73-404.74A284.31 284.31 0 00339.91 58.7zM58.41 287.53a288.53 288.53 0 000 114.73 291.51 291.51 0 010-114.73zm568.68 57.86a289.45 289.45 0 01-5.68 56.79 287.25 287.25 0 005.74-56.79zm0-1h.06a286.66 286.66 0 00-5.76-56.88 289.53 289.53 0 015.7 56.88zM339.91 57.7a290.22 290.22 0 0157.25 5.67 288.86 288.86 0 00-114.35 0 290.14 290.14 0 0157.1-5.67z"/><path class="cls-2" d="M631 344.89h-.53a290.55 290.55 0 11-85.1-205.47 289.69 289.69 0 0185.1 205.47h1.06c0-161.06-130.53-291.63-291.62-291.63S48.27 183.83 48.27 344.89s130.57 291.63 291.64 291.63S631.53 506 631.53 344.89z"/><path class="cls-1" d="M339.91 636.65A291.84 291.84 0 01226.34 76.06a291.68 291.68 0 01405.32 268.71v.23a291.52 291.52 0 01-291.75 291.65zm0-583.27C179.17 53.38 48.4 184.15 48.4 344.89S179.17 636.4 339.91 636.4 631.34 505.7 631.41 345h-.81A290.77 290.77 0 0172.05 458a290.77 290.77 0 01535.7-226.3 288.81 288.81 0 0122.85 113h.81c-.07-160.62-130.81-291.32-291.5-291.32zm0 1.06a290.45 290.45 0 00-205.38 495.83 290.45 290.45 0 00410.75-410.76 288.53 288.53 0 00-205.37-85.07z"/><path class="cls-2" d="M634.88 344.89h-.52a294.48 294.48 0 11-86.25-208.21 293.51 293.51 0 0186.25 208.21h1c0-163.21-132.3-295.51-295.5-295.51S44.39 181.68 44.39 344.89 176.7 640.41 339.91 640.41s295.5-132.31 295.5-295.52z"/><path class="cls-1" d="M339.91 640.53a295.64 295.64 0 110-591.28 295.39 295.39 0 01295.63 295.52v.23a295.38 295.38 0 01-295.63 295.53zm0-591C177 49.5 44.52 182 44.52 344.89S177 640.28 339.91 640.28 635.22 507.84 635.29 345h-.81a294.66 294.66 0 01-566 114.54 294.66 294.66 0 01542.85-229.31 292.69 292.69 0 0123.15 114.54h.81C635.22 181.94 502.74 49.5 339.91 49.5zm0 1.06A294.33 294.33 0 00131.78 553 294.33 294.33 0 00548 136.77a292.39 292.39 0 00-208.09-86.21z"/><path class="cls-1" d="M638.77 344.89h-.53a298.33 298.33 0 11-87.38-211 297.4 297.4 0 0187.38 211h1.06c0-165.35-134-299.4-299.39-299.4s-299.4 134-299.4 299.4 134 299.4 299.4 299.4 299.39-134 299.39-299.4z"/><path class="cls-2" d="M642.65 344.89h-.53a302.23 302.23 0 11-88.52-213.7 301.27 301.27 0 0188.52 213.7h1.06c0-167.49-135.78-303.28-303.27-303.28S36.63 177.4 36.63 344.89s135.78 303.28 303.28 303.28 303.27-135.78 303.27-303.28z"/><path class="cls-1" d="M339.91 648.29a303.48 303.48 0 01-118.1-583A303.3 303.3 0 01643.3 344.77v.23a303.14 303.14 0 01-303.39 303.29zm0-606.55c-167.16 0-303.16 136-303.16 303.15S172.75 648 339.91 648 643 512.12 643.05 345h-.81A302.42 302.42 0 0161.32 462.58a302.42 302.42 0 01557.17-235.37 300.47 300.47 0 0123.75 117.56h.81C643 177.66 507 41.74 339.91 41.74zm0 1.06a302.09 302.09 0 00-213.62 515.7 302.09 302.09 0 00427.22-427.22 300.07 300.07 0 00-213.6-88.48z"/><path class="cls-1" d="M646.53 344.89H646a306.1 306.1 0 11-89.65-216.44A305.17 305.17 0 01646 344.89h1.06c0-169.64-137.52-307.16-307.15-307.16S32.75 175.25 32.75 344.89s137.52 307.16 307.16 307.16 307.15-137.52 307.15-307.16z"/><path class="cls-1" d="M339.91 652.3A307.49 307.49 0 01220.25 61.64a307.32 307.32 0 01427.06 283v.5a307.16 307.16 0 01-307.4 307.16zm0-614.32C170.68 38 33 175.66 33 344.89S170.68 651.8 339.91 651.8s306.76-137.54 306.9-306.66h-.56a306.43 306.43 0 01-588.62 119 306.43 306.43 0 01564.55-238.49 304.37 304.37 0 0124.07 119h.56C646.67 175.52 509.05 38 339.91 38zm0 1.06a305.85 305.85 0 00-216.27 522.12 305.85 305.85 0 00432.53-432.54A303.83 303.83 0 00339.91 39z"/><path class="cls-2" d="M650.41 344.89h-.53a310 310 0 11-90.79-219.19 309 309 0 0190.79 219.19h1.06c0-171.78-139.25-311-311-311s-311 139.26-311 311 139.25 311 311 311 311-139.26 311-311z"/><path class="cls-1" d="M339.91 656.06A311.25 311.25 0 01218.79 58.18a311.06 311.06 0 01432.27 286.59v.23a310.92 310.92 0 01-311.15 311zm0-622.08C168.47 34 29 173.45 29 344.89s139.47 310.92 310.91 310.92S650.75 516.4 650.81 345H650A310.19 310.19 0 0154.17 465.6a310.19 310.19 0 01571.47-241.42A308.36 308.36 0 01650 344.77h.8C650.75 173.39 511.3 34 339.91 34zm0 1.05A309.86 309.86 0 00120.8 564 309.85 309.85 0 10559 125.79 307.78 307.78 0 00339.91 35z"/><path class="cls-1" d="M654.29 344.89h-.53A313.85 313.85 0 11561.84 123a312.92 312.92 0 0191.92 221.93h1.06C654.82 171 513.83 30 339.91 30S25 171 25 344.89s141 314.92 314.91 314.92 314.91-141 314.91-314.92z"/><path class="cls-7" d="M339.91 659.94A315.13 315.13 0 01217.28 54.6 315 315 0 01655 344.77v.23a314.8 314.8 0 01-315 314.92zm0-629.85c-173.58 0-314.8 141.22-314.8 314.8s141.22 314.8 314.8 314.8S654.63 518.54 654.7 345h-.81a314.07 314.07 0 01-603.3 122.11 314.07 314.07 0 01578.62-244.44 312.07 312.07 0 0124.68 122.1h.81c-.07-173.52-141.26-314.68-314.79-314.68zm0 1.06a313.74 313.74 0 00-221.85 535.59A313.74 313.74 0 00561.75 123a311.71 311.71 0 00-221.84-91.85z"/><path class="cls-2" d="M658.17 344.89h-.53a317.73 317.73 0 11-93.06-224.68 316.74 316.74 0 0193.06 224.68h1.06c0-176.07-142.73-318.8-318.79-318.8S21.1 168.82 21.1 344.89s142.74 318.8 318.81 318.8S658.7 521 658.7 344.89z"/><path class="cls-7" d="M339.91 663.82A319 319 0 01215.77 51a318.84 318.84 0 01443.06 293.77v.23a318.66 318.66 0 01-318.92 318.8zm0-637.61c-175.72 0-318.68 143-318.68 318.68s143 318.68 318.68 318.68S658.51 520.68 658.58 345h-.81A317.95 317.95 0 0147 468.62a317.95 317.95 0 01585.79-247.46 315.94 315.94 0 0125 123.61h.81c-.09-175.66-143.02-318.56-318.69-318.56zm0 1.06a317.63 317.63 0 00-224.6 542.21A317.62 317.62 0 10564.49 120.3a315.53 315.53 0 00-224.58-93.03z"/><path class="cls-1" d="M662.05 344.89h-.53a321.62 321.62 0 11-94.19-227.42 320.64 320.64 0 0194.19 227.42h1.06c0-178.21-144.46-322.68-322.67-322.68S17.22 166.68 17.22 344.89s144.47 322.69 322.69 322.69S662.58 523.1 662.58 344.89z"/><path class="cls-1" d="M665.94 344.89h-.53a325.51 325.51 0 11-95.34-230.17 324.52 324.52 0 0195.34 230.17h1.05c0-180.36-146.2-326.57-326.55-326.57S13.34 164.53 13.34 344.89s146.21 326.57 326.57 326.57 326.55-146.21 326.55-326.57z"/><path class="cls-1" d="M342.06 264.64a77.42 77.42 0 1077.41 77.42 77.42 77.42 0 00-77.41-77.42zm230.32 78.76c0 126.81-102.8 229.6-229.62 229.6S113.15 470.21 113.15 343.4 216 113.79 342.76 113.79s229.62 102.8 229.62 229.61z"/><path d="M372.21 164.43a157 157 0 00-22.85-2.36c-11.51-.23-19.94.28-19.94.28l-13.41-47s18.29-1 35.58-1c13.3 0 39.7 4.59 39.7 4.59z" fill="url(#linear-gradient-3)"/></g></g></svg>